<svg width="28" height="11" viewBox="0 0 28 11" fill="none" xmlns="http://www.w3.org/2000/svg">
<path fill-rule="evenodd" clip-rule="evenodd" d="M1.49974 0.690546H5.14338V0.463562H7.2951V0.690546H20.4734V0.463562H21.6559V0.690546H22.4849L22.6586 1.04006V1.8929H23.6807H23.7873H23.8173V2.12914H23.7873V2.569V2.69505V3.50118V3.62767V3.84452H23.6807V3.62767H23.5242V3.98467H23.3007V3.1618H23.5242V3.50118H23.6807V2.69505H23.5242V3.045H23.3007V2.22257H23.5242V2.569H23.6807V2.12914H22.6586V4.16053L25.0095 4.33727L27.1114 4.57042L27.3411 6.28227L27.7007 6.45945V7.3383L27.8241 7.41499V8.31411L27.6143 8.58384L27.2511 8.59354V8.57767C27.2511 7.40177 26.2987 6.44623 25.1197 6.44623C23.9403 6.44623 22.9883 7.40177 22.9883 8.57767C22.9883 8.61734 22.9883 8.65348 22.9913 8.6905H22.8349L22.8115 9.55348H18.442L16.5737 8.76014L16.2907 8.74075V9.04046H10.1586V8.724L9.9259 8.72048H9.90563C9.90916 8.66053 9.91224 8.60059 9.91224 8.53713C9.91224 7.3048 8.91307 6.30608 7.68119 6.30608C6.44887 6.30608 5.4497 7.3048 5.4497 8.53713C5.4497 8.5812 5.4497 8.62351 5.45323 8.66759H5.4497L4.77007 8.67376V9.00343H4.62022V9.12332H1.10307V8.81744H4.4902V8.67728L1.42967 8.71342H0.377167V7.59129H0.727118V7.56837L0.703318 3.10495L1.07971 0.95367L1.49974 0.690546ZM19.3543 8.724H20.4469V5.92615H19.3543V8.724ZM20.8432 8.724H21.9221V5.92615H20.8432V8.724ZM21.9221 8.85358H20.8432V9.22733H21.9221V8.85358ZM20.4469 8.85358H19.3543V9.22733H20.4469V8.85358ZM19.3543 2.72546H20.4469V2.35568H19.3543V2.72546ZM20.8432 2.72546H21.9221V2.35568H20.8432V2.72546ZM21.9221 2.85196H20.8432V5.55284H21.9221V2.85196ZM20.4469 2.85196H19.3543V5.55284H20.4469V2.85196ZM1.49974 2.35568H3.53114V4.17728H1.49974V2.35568ZM3.89431 2.35568H5.92923V4.17728H3.89431V2.35568ZM6.33516 2.35568H8.37052V4.17728H6.33516V2.35568ZM8.73325 2.35568H10.7651V4.17728H8.73325V2.35568ZM11.1847 2.35568H13.2196V4.17728H11.1847V2.35568ZM13.5828 2.35568H15.6146V4.17728H13.5828V2.35568ZM16.0571 2.35568H18.8382V4.17728H16.0571V2.35568Z" fill="#527ED2"/>
<path fill-rule="evenodd" clip-rule="evenodd" d="M25.1426 6.68604C26.1488 6.68604 26.9647 7.50141 26.9647 8.50719C26.9647 9.5165 26.1488 10.3328 25.1426 10.3328C24.1373 10.3328 23.321 9.5165 23.321 8.50719C23.321 7.50141 24.1373 6.68604 25.1426 6.68604ZM25.1426 7.35861C25.7791 7.35861 26.2956 7.87164 26.2956 8.50719C26.2956 9.14363 25.7791 9.6593 25.1426 9.6593C24.5066 9.6593 23.994 9.14363 23.994 8.50719C23.994 7.87164 24.5066 7.35861 25.1426 7.35861Z" fill="#527ED2"/>
<path fill-rule="evenodd" clip-rule="evenodd" d="M7.68735 6.68604C8.69358 6.68604 9.50939 7.50141 9.50939 8.50719C9.50939 9.5165 8.69358 10.3328 7.68735 10.3328C6.67849 10.3328 5.86267 9.5165 5.86267 8.50719C5.86267 7.50141 6.67849 6.68604 7.68735 6.68604ZM7.68735 7.35861C8.32379 7.35861 8.83682 7.87164 8.83682 8.50719C8.83682 9.14363 8.32379 9.6593 7.68735 9.6593C7.05136 9.6593 6.53525 9.14363 6.53525 8.50719C6.53525 7.87164 7.05136 7.35861 7.68735 7.35861Z" fill="#527ED2"/>
<path fill-rule="evenodd" clip-rule="evenodd" d="M1.63285 3.3147C2.26885 3.38478 2.28868 3.88061 2.28868 5.0433H1.63285V3.3147Z" fill="#527ED2"/>
<path fill-rule="evenodd" clip-rule="evenodd" d="M4.07722 3.3147C4.71013 3.38478 4.72997 3.88061 4.72997 5.0433H4.07722V3.3147Z" fill="#527ED2"/>
<path fill-rule="evenodd" clip-rule="evenodd" d="M6.50528 3.3147C7.14127 3.38478 7.16155 3.88061 7.16155 5.0433H6.50528V3.3147Z" fill="#527ED2"/>
<path fill-rule="evenodd" clip-rule="evenodd" d="M8.93643 3.3147C9.57243 3.38478 9.5927 3.88061 9.5927 5.0433H8.93643V3.3147Z" fill="#527ED2"/>
<path fill-rule="evenodd" clip-rule="evenodd" d="M11.3914 3.3147C12.0274 3.38478 12.0437 3.88061 12.0437 5.0433H11.3914V3.3147Z" fill="#527ED2"/>
<path fill-rule="evenodd" clip-rule="evenodd" d="M13.7992 3.3147C14.4321 3.38478 14.4519 3.88061 14.4519 5.0433H13.7992V3.3147Z" fill="#527ED2"/>
<path fill-rule="evenodd" clip-rule="evenodd" d="M16.2739 3.3147C16.9099 3.38478 16.9302 3.88061 16.9302 5.0433H16.2739V3.3147Z" fill="#527ED2"/>
</svg>
