<svg width="19" height="19" viewBox="0 0 19 19" fill="none" xmlns="http://www.w3.org/2000/svg">
<path d="M5.23989 7.74133L4.7384 9.22371H3.45889L5.60547 3.45889H7.08651L9.22371 9.22371H7.87858L7.37709 7.74133H5.23989ZM7.124 6.89244L6.3413 4.56117H6.28506L5.50236 6.89244H7.124Z" fill="black"/>
<path d="M0 2.30593C0 1.0324 1.0324 0 2.30593 0H10.3767C11.6502 0 12.6826 1.0324 12.6826 2.30593V5.76482H16.1415C17.415 5.76482 18.4474 6.79722 18.4474 8.07075V16.1415C18.4474 17.415 17.415 18.4474 16.1415 18.4474H8.07075C6.79722 18.4474 5.76482 17.415 5.76482 16.1415V12.6826H2.30593C1.0324 12.6826 0 11.6502 0 10.3767V2.30593ZM2.30593 1.15296C1.66916 1.15296 1.15296 1.66916 1.15296 2.30593V10.3767C1.15296 11.0134 1.66916 11.5296 2.30593 11.5296H10.3767C11.0134 11.5296 11.5296 11.0134 11.5296 10.3767V2.30593C11.5296 1.66916 11.0134 1.15296 10.3767 1.15296H2.30593ZM10.5354 12.6772C10.7579 13.0241 10.9993 13.3492 11.2615 13.6522C10.3998 14.3154 9.3334 14.8064 8.07075 15.1423C8.2755 15.3921 8.59116 15.8745 8.7106 16.1415C10.0074 15.728 11.1079 15.1682 12.0379 14.4188C12.9337 15.1854 14.0428 15.7625 15.4163 16.1156C15.5699 15.8228 15.8941 15.3404 16.1415 15.0907C14.8447 14.7978 13.7697 14.2896 12.891 13.6092C13.6759 12.7478 14.2987 11.7056 14.7594 10.4308H16.1415V9.2237H12.6826V10.3767C12.6826 10.3948 12.6824 10.4128 12.682 10.4308H13.565C13.1981 11.4041 12.7119 12.2138 12.0976 12.8856C11.9279 12.7054 11.7685 12.5166 11.619 12.3196C11.3023 12.5226 10.9327 12.6502 10.5354 12.6772Z" fill="black"/>
</svg>
